:SAMPLES-PER-SECOND 30
:FULLY-SPECIFIED
:DEGREES
68
root  -14.3684 15.0403 0.444056 -167.284 78.8325 127.643
RightUpLeg  -75.1601 16.6212 2.99235
RightLeg  97.5668 -25.8783 90.8334
RightFoot  165.385 -70.026 1.2231
RightToes  3.49245e-010 -3.18055e-015 8.94531e-016
Spine  61.0401 -6.59492 -0.934867
Spine1  -41.5783 -3.02248 -19.3297
HEad  -64.1573 -9.10116 13.4894
LeftShoulder1  0 0 -2.47967e-037
LeftArm  16.3587 -15.3081 -86.2539
LeftForeArm  -98.6654 -61.2986 153.036
LeftHand  0.854017 6.96065 22.79
RightShoulder  -2.48481e-017 0 -8.08114e-019
RightArm  -43.148 58.4081 22.1724
RightForeArm  -27.6731 42.5762 -39.1531
RightHand  1.09913 -9.41797 -6.90215
LeftUpLeg  -31.8966 -6.53079 6.61287
LeftLeg  77.3971 -16.4763 -18.3701
LeftFoot  -3.92367 0.414364 -5.12462
LeftToes  -9.64061e-011 -5.23042e-011 -2.66379e-011
69
root  -13.3326 15.4399 1.04786 -173.483 77.69 119.667
RightUpLeg  -72.7097 17.0913 2.23358
RightLeg  103.707 -16.816 72.7022
RightFoot  175.475 -51.6019 -4.45905
RightToes  3.49245e-010 -3.18055e-015 8.94531e-016
Spine  59.8493 -7.53854 -1.23619
Spine1  -39.6088 -4.04204 -18.9998
HEad  -65.9173 -8.68394 14.8158
LeftShoulder1  0 0 -2.47967e-037
LeftArm  14.6045 -10.5094 -82.5879
LeftForeArm  -97.4815 -62.5382 150.778
LeftHand  -0.223181 4.24086 26.3837
RightShoulder  -2.48481e-017 0 -8.08114e-019
RightArm  -42.866 57.5672 25.3905
RightForeArm  -33.6075 48.0056 -45.7676
RightHand  1.1762 -10.6151 -3.71117
LeftUpLeg  -35.5395 -3.79868 5.75376
LeftLeg  77.9308 -16.4822 -19.0528
LeftFoot  3.51585 0.797422 -5.27516
LeftToes  -9.64061e-011 -5.23042e-011 -2.66379e-011
70
root  -12.1771 15.7573 1.66265 178.051 76.593 110.692
RightUpLeg  -69.3387 18.5281 1.03489
RightLeg  102.215 -12.9457 75.0956
RightFoot  177.476 -53.5025 -4.8605
RightToes  3.49245e-010 -3.18055e-015 8.94531e-016
Spine  59.0877 -7.72131 -2.91269
Spine1  -37.9045 -5.03276 -17.8005
HEad  -66.6841 -8.52291 15.8036
LeftShoulder1  0 0 -2.47967e-037
LeftArm  13.7009 -5.18566 -78.7211
LeftForeArm  -96.1673 -64.3225 147.151
LeftHand  -1.40822 1.97031 31.9714
RightShoulder  -2.48481e-017 0 -8.08114e-019
RightArm  -38.8714 57.5674 32.4008
RightForeArm  -37.5674 51.5263 -51.4712
RightHand  1.37799 -12.6592 -2.3823
LeftUpLeg  -38.3007 -0.349684 4.0896
LeftLeg  80.357 -15.7045 -18.9245
LeftFoot  3.81871 0.826014 -5.37103
LeftToes  -9.64061e-011 -5.23042e-011 -2.66379e-011
71
root  -11.0534 16.0073 2.26565 167.995 75.4064 101.411
RightUpLeg  -65.3065 20.9864 -0.441798
RightLeg  93.0304 -14.2927 116.374
RightFoot  -61.5975 -83.2131 -128.27
RightToes  3.49245e-010 -3.18055e-015 8.94531e-016
Spine  58.9611 -7.13889 -5.09112
Spine1  -36.8656 -5.74589 -16.8592
HEad  -66.2488 -8.57382 16.3396
LeftShoulder1  0 0 -2.47967e-037
LeftArm  14.3614 -0.853803 -76.213
LeftForeArm  -90.6211 -66.9351 140.175
LeftHand  -2.24607 0.78579 36.7053
RightShoulder  -2.48481e-017 0 -8.08114e-019
RightArm  -31.718 57.1409 41.4378
RightForeArm  -38.0727 53.6 -55.7797
RightHand  1.51552 -14.2021 -1.70195
LeftUpLeg  -40.8779 2.52357 2.17689
LeftLeg  85.0399 -14.1532 -17.4544
LeftFoot  0.897134 0.690284 -5.4939
LeftToes  -9.64061e-011 -5.23042e-011 -2.66379e-011
72
root  -10.1061 16.2019 2.82629 158.763 74.1931 93.6762
RightUpLeg  -61.046 23.1295 -1.4373
RightLeg  83.1265 -13.3254 158.504
RightFoot  -11.8455 -44.9782 178.17
RightToes  3.49245e-010 -3.18055e-015 8.94531e-016
Spine  59.3503 -6.22525 -6.65682
Spine1  -36.6702 -6.13023 -17.2152
HEad  -65.4439 -8.50021 16.4558
LeftShoulder1  0 0 -2.47967e-037
LeftArm  15.5054 1.69767 -75.1856
LeftForeArm  -82.2453 -69.1241 131.239
LeftHand  -2.39152 0.614044 37.509
RightShoulder  -2.48481e-017 0 -8.08114e-019
RightArm  -24.0661 54.8348 49.9147
RightForeArm  -39.0912 55.6023 -60.7474
RightHand  1.65828 -15.6508 -1.39402
LeftUpLeg  -44.282 4.30273 0.674663
LeftLeg  91.5208 -12.455 -14.8615
LeftFoot  -0.263556 0.704266 -6.09692
LeftToes  -9.64061e-011 -5.23042e-011 -2.66379e-011
73
root  -9.26539 16.39 3.31304 152.044 73.2233 88.4032
RightUpLeg  -57.0233 24.5896 -1.70962
RightLeg  82.7204 -10.9685 174.098
RightFoot  -12.0852 -27.7384 175.658
RightToes  3.49245e-010 -3.18055e-015 8.94531e-016
Spine  57.7017 -5.76312 -7.17713
Spine1  -30.8123 -5.85159 -18.3917
HEad  -68.7253 -7.26197 16.5609
LeftShoulder1  0 0 -2.47967e-037
LeftArm  13.9488 -0.203642 -75.2145
LeftForeArm  -79.0394 -69.7425 127.663
LeftHand  -2.03398 0.963677 34.766
RightShoulder  -2.48481e-017 0 -8.08114e-019
RightArm  -21.2104 54.2785 53.533
RightForeArm  -41.5406 57.4177 -66.2944
RightHand  1.93017 -17.4715 -2.01612
LeftUpLeg  -49.3407 4.59726 -0.18749
LeftLeg  98.7318 -11.0644 -13.0443
LeftFoot  0.946316 0.755782 -5.96064
LeftToes  -9.64061e-011 -5.23042e-011 -2.66379e-011
74
root  -8.48087 16.5552 3.69917 146.572 72.1486 84.075
RightUpLeg  -53.4024 25.8557 -2.05902
RightLeg  84.1675 -10.2338 -178.085
RightFoot  -12.108 -18.2942 173.625
RightToes  3.49245e-010 -3.18055e-015 8.94531e-016
Spine  57.5634 -5.1581 -7.46103
Spine1  -28.8685 -5.61734 -18.6087
HEad  -70.0856 -7.07668 16.0264
LeftShoulder1  0 0 -2.47967e-037
LeftArm  10.9012 -1.24989 -75.5062
LeftForeArm  -87.2825 -68.7387 133.813
LeftHand  -1.64143 1.36797 31.6958
RightShoulder  -2.48481e-017 0 -8.08114e-019
RightArm  -16.3842 52.2851 58.319
RightForeArm  -43.1233 58.5687 -70.8394
RightHand  2.1936 -18.8438 -2.92908
LeftUpLeg  -56.0693 3.65576 -1.25151
LeftLeg  105.802 -9.55551 -13.2579
LeftFoot  2.68212 0.459239 -3.1615
LeftToes  -9.64061e-011 -5.23042e-011 -2.66379e-011
75
root  -8.06547 16.485 3.96341 138.749 70.2175 77.5881
RightUpLeg  -50.4517 26.8677 -3.56934
RightLeg  84.9012 -10.1281 -176.236
RightFoot  -12.1305 -16.3346 173.005
RightToes  3.49245e-010 -3.18055e-015 8.94531e-016
Spine  59.6676 -3.81087 -9.20512
Spine1  -33.7718 -5.81794 -19.0618
HEad  -67.1335 -8.34514 14.9766
LeftShoulder1  0 0 -2.47967e-037
LeftArm  8.02799 -1.12085 -75.3897
LeftForeArm  -99.9866 -66.5646 142.431
LeftHand  -1.25425 1.9317 29.2794
RightShoulder  -2.48481e-017 0 -8.08114e-019
RightArm  -9.00194 47.4409 64.8966
RightForeArm  -43.7713 59.4565 -75.3015
RightHand  2.26424 -19.2191 -3.11898
LeftUpLeg  -63.8935 2.54284 -3.80037
LeftLeg  113.09 -7.64361 -14.001
LeftFoot  5.30472 -0.287912 1.74471
LeftToes  -9.64061e-011 -5.23042e-011 -2.66379e-011
76
root  -7.89505 16.3052 4.09353 129.425 68.8572 70.1746
RightUpLeg  -47.6822 28.111 -4.85991
RightLeg  86.2308 -10.5312 174.18
RightFoot  -11.66 -24.5997 173.427
RightToes  3.49245e-010 -3.18055e-015 8.94531e-016
Spine  60.5679 -2.28433 -10.9697
Spine1  -35.0998 -5.625 -21.0623
HEad  -65.7211 -8.64203 14.1095
LeftShoulder1  0 0 -2.47967e-037
LeftArm  4.36228 -5.68666 -74.5709
LeftForeArm  -109.519 -65.2631 146.761
LeftHand  -0.564826 3.23826 25.4654
RightShoulder  -2.48481e-017 0 -8.08114e-019
RightArm  -4.71478 43.9371 68.3831
RightForeArm  -46.0874 60.44 -81.5209
RightHand  2.27143 -19.369 -3.01219
LeftUpLeg  -71.8893 2.19094 -6.12052
LeftLeg  119.725 -5.93904 -13.935
LeftFoot  11.2776 -0.953459 4.55327
LeftToes  -9.64061e-011 -5.23042e-011 -2.66379e-011
77
root  -6.80135 16.5864 4.04562 121.419 71.9158 63.8341
RightUpLeg  -42.8854 31.4062 -2.25255
RightLeg  89.9969 -10.0433 170.753
RightFoot  -11.4442 -22.171 171.184
RightToes  3.49245e-010 -3.18055e-015 8.94531e-016
Spine  62.4266 -1.57841 -7.64995
Spine1  -35.1754 -4.69003 -21.7285
HEad  -64.4367 -8.66717 12.9318
LeftShoulder1  0 0 -2.47967e-037
LeftArm  0.702621 -12.0014 -72.9398
LeftForeArm  -116.352 -65.6249 146.93
LeftHand  0.333572 5.35087 19.8492
RightShoulder  -2.48481e-017 0 -8.08114e-019
RightArm  -1.46923 40.7294 71.0963
RightForeArm  -51.0736 61.2248 -88.6494
RightHand  2.40644 -19.9859 -3.44802
LeftUpLeg  -77.1914 3.40768 -4.05898
LeftLeg  122.669 -4.76006 -14.3906
LeftFoot  19.1329 -1.27881 4.61023
LeftToes  -9.64061e-011 -5.23042e-011 -2.66379e-011
78
root  -4.4625 17.252 3.7357 109.809 79.2171 52.6985
RightUpLeg  -35.3588 34.5536 4.11584
RightLeg  96.43 -11.2434 -175.592
RightFoot  -12.9425 -1.89155 166.423
RightToes  3.49245e-010 -3.18055e-015 8.94531e-016
Spine  64.7007 -2.69359 1.05448
Spine1  -34.6249 -3.37227 -19.107
HEad  -63.3577 -9.0215 11.4218
LeftShoulder1  0 0 -2.47967e-037
LeftArm  -2.5501 -18.6257 -71.0396
LeftForeArm  -120.483 -67.0342 144.246
LeftHand  0.9914 7.33397 15.1104
RightShoulder  -2.48481e-017 0 -8.08114e-019
RightArm  1.27994 37.8608 73.7439
RightForeArm  -56.0988 61.6011 -94.9534
RightHand  2.55526 -20.4895 -4.08961
LeftUpLeg  -78.2943 6.03478 1.96208
LeftLeg  122.19 -3.84877 -15.9813
LeftFoot  23.508 -1.68435 5.25421
LeftToes  -9.64061e-011 -5.23042e-011 -2.66379e-011
